<svg width="30" height="30" viewBox="0 0 30 30" fill="none" xmlns="http://www.w3.org/2000/svg">
<path d="M24 6C23.085 6 22.245 5.475 21.825 4.665L20.745 2.49C20.055 1.125 18.255 0 16.725 0H13.29C11.745 0 9.94501 1.125 9.25501 2.49L8.17501 4.665C7.75501 5.475 6.91501 6 6.00001 6C2.74501 6 0.165007 8.745 0.375007 11.985L1.15501 24.375C1.33501 27.465 3.00001 30 7.14001 30H22.86C27 30 28.65 27.465 28.845 24.375L29.625 11.985C29.835 8.745 27.255 6 24 6ZM12.75 7.875H17.25C17.865 7.875 18.375 8.385 18.375 9C18.375 9.615 17.865 10.125 17.25 10.125H12.75C12.135 10.125 11.625 9.615 11.625 9C11.625 8.385 12.135 7.875 12.75 7.875ZM15 24.18C12.21 24.18 9.93001 21.915 9.93001 19.11C9.93001 16.305 12.195 14.04 15 14.04C17.805 14.04 20.07 16.305 20.07 19.11C20.07 21.915 17.79 24.18 15 24.18Z" fill="white"/>
</svg>
