<svg width="52" height="42" viewBox="0 0 52 42" fill="none" xmlns="http://www.w3.org/2000/svg">
<path d="M32.9991 0.658443C28.7842 1.31269 25.337 3.89044 23.4008 7.3687C20.5155 4.63878 16.4583 3.22604 12.2433 3.88029C4.96945 5.0094 -0.01885 11.8664 1.1017 19.1959C3.65081 35.87 28.6188 41.4996 28.6188 41.4996C28.6188 41.4996 50.7479 28.5593 48.1986 11.8852C47.0781 4.55574 40.2731 -0.470667 32.9991 0.658443Z" fill="white"/>
<path d="M43.6231 14.8413C40.5446 14.0312 37.4262 14.7674 35.0779 16.5713C33.9047 13.8408 31.5418 11.6624 28.4633 10.8524C23.1505 9.45444 17.719 12.661 16.3316 18.0143C13.1755 30.1929 28.6176 41.5002 28.6176 41.5002C28.6176 41.5002 47.5747 39.2441 50.7308 27.0656C52.1181 21.7122 48.9359 16.2393 43.6231 14.8413Z" fill="#FFCCD7"/>
<path d="M43.6227 14.8412C41.7509 14.3487 39.8648 14.4287 38.1455 14.9718C43.1853 16.5533 46.1492 21.8656 44.8016 27.0655C42.7926 34.8177 34.4083 39.2637 28.5789 41.4716C28.6038 41.4901 28.6172 41.5 28.6172 41.5C28.6172 41.5 47.5742 39.244 50.7303 27.0655C52.1177 21.7121 48.9355 16.2392 43.6227 14.8412Z" fill="#FFB3CB"/>
</svg>
