<svg xmlns="http://www.w3.org/2000/svg" width="32" height="32" viewBox="0 0 32 32" fill="none">
<path d="M26.8003 12.2936C24.387 12.2936 23.4003 10.5869 24.6003 8.49357C25.2937 7.28024 24.8803 5.73357 23.667 5.04024L21.3603 3.72024C20.307 3.09357 18.947 3.46691 18.3203 4.52024L18.1737 4.77357C16.9737 6.86691 15.0003 6.86691 13.787 4.77357L13.6403 4.52024C13.0403 3.46691 11.6803 3.09357 10.627 3.72024L8.32033 5.04024C7.10699 5.73357 6.69366 7.29357 7.38699 8.50691C8.60033 10.5869 7.61366 12.2936 5.20033 12.2936C3.81366 12.2936 2.66699 13.4269 2.66699 14.8269V17.1736C2.66699 18.5602 3.80033 19.7069 5.20033 19.7069C7.61366 19.7069 8.60033 21.4136 7.38699 23.5069C6.69366 24.7202 7.10699 26.2669 8.32033 26.9602L10.627 28.2802C11.6803 28.9069 13.0403 28.5336 13.667 27.4802L13.8137 27.2269C15.0137 25.1336 16.987 25.1336 18.2003 27.2269L18.347 27.4802C18.9737 28.5336 20.3337 28.9069 21.387 28.2802L23.6937 26.9602C24.907 26.2669 25.3203 24.7069 24.627 23.5069C23.4137 21.4136 24.4003 19.7069 26.8137 19.7069C28.2003 19.7069 29.347 18.5736 29.347 17.1736V14.8269C29.3337 13.4402 28.2003 12.2936 26.8003 12.2936ZM16.0003 20.3336C13.6137 20.3336 11.667 18.3869 11.667 16.0002C11.667 13.6136 13.6137 11.6669 16.0003 11.6669C18.387 11.6669 20.3337 13.6136 20.3337 16.0002C20.3337 18.3869 18.387 20.3336 16.0003 20.3336Z" fill="#1db954"/>
</svg>