<svg xmlns="http://www.w3.org/2000/svg" width="32" height="32" viewBox="0 0 32 32" fill="none">
<path d="M16.77 3.0124C16.6825 3.00782 16.5954 3.02631 16.5173 3.06602C16.4392 3.10573 16.3729 3.16526 16.325 3.23865C15.0375 5.1849 15 6.97365 15 6.9999C15.0006 7.14872 15.0344 7.29553 15.0989 7.42962C15.1635 7.56371 15.2571 7.68171 15.3731 7.77501C15.489 7.86831 15.6243 7.93456 15.7691 7.96893C15.9139 8.00329 16.0645 8.00491 16.21 7.97365C16.4371 7.91926 16.639 7.7893 16.7825 7.60511C16.9261 7.42091 17.0028 7.19341 17 6.9599C17.0048 6.82312 17.0376 6.68878 17.0964 6.56519C17.1552 6.4416 17.2388 6.3314 17.3419 6.2414C17.445 6.15141 17.5655 6.08354 17.6959 6.042C17.8263 6.00046 17.9638 5.98613 18.1 5.9999C18.351 6.02904 18.5821 6.1505 18.7485 6.34065C18.9148 6.5308 19.0045 6.77604 19 7.02865C18.9955 7.8243 18.6752 8.58559 18.1094 9.14503C17.5436 9.70447 16.7788 10.0163 15.9831 10.0118C15.1875 10.0073 14.4262 9.68694 13.8668 9.12117C13.3073 8.55539 12.9955 7.79055 13 6.9949C13 6.91615 13.0113 5.6474 13.68 3.9949C13.7139 3.91034 13.724 3.81813 13.7093 3.72824C13.6946 3.63834 13.6556 3.55417 13.5965 3.48482C13.5375 3.41547 13.4606 3.36357 13.3742 3.33472C13.2878 3.30588 13.1951 3.30119 13.1063 3.32115C10.1598 3.99796 7.54078 5.67899 5.69836 8.07586C3.85595 10.4727 2.90504 13.436 3.00877 16.4574C3.25002 23.3399 8.90377 28.8749 15.79 28.9874C19.187 29.0394 22.4694 27.7596 24.9346 25.4218C27.3997 23.084 28.8518 19.874 28.9799 16.479C29.108 13.0841 27.9019 9.77383 25.6199 7.25693C23.3379 4.74004 20.1613 3.21648 16.77 3.0124ZM10 15.9887C10 15.692 10.088 15.402 10.2528 15.1553C10.4176 14.9086 10.6519 14.7164 10.926 14.6028C11.2001 14.4893 11.5017 14.4596 11.7927 14.5175C12.0836 14.5754 12.3509 14.7182 12.5607 14.928C12.7705 15.1378 12.9133 15.405 12.9712 15.696C13.0291 15.987 12.9994 16.2886 12.8858 16.5627C12.7723 16.8368 12.58 17.071 12.3334 17.2359C12.0867 17.4007 11.7967 17.4887 11.5 17.4887C11.1022 17.4887 10.7207 17.3306 10.4394 17.0493C10.1581 16.768 10 16.3865 10 15.9887ZM20.0338 22.8349C18.8236 23.5893 17.4261 23.9892 16 23.9892C14.5739 23.9892 13.1765 23.5893 11.9663 22.8349C11.7418 22.6933 11.5828 22.4684 11.5242 22.2096C11.4656 21.9508 11.5122 21.6793 11.6538 21.4549C11.7953 21.2305 12.0202 21.0715 12.279 21.0128C12.5378 20.9542 12.8093 21.0008 13.0338 21.1424C13.9244 21.6952 14.9518 21.9881 16 21.9881C17.0483 21.9881 18.0756 21.6952 18.9663 21.1424C19.0774 21.0723 19.2012 21.0248 19.3307 21.0026C19.4602 20.9803 19.5928 20.9838 19.721 21.0128C19.8491 21.0419 19.9703 21.0958 20.0776 21.1717C20.1849 21.2475 20.2762 21.3438 20.3463 21.4549C20.4164 21.566 20.4639 21.6899 20.4861 21.8194C20.5083 21.9489 20.5048 22.0815 20.4758 22.2096C20.4468 22.3378 20.3928 22.4589 20.317 22.5662C20.2411 22.6735 20.1449 22.7648 20.0338 22.8349ZM20.5 17.4887C20.2033 17.4887 19.9133 17.4007 19.6667 17.2359C19.42 17.071 19.2277 16.8368 19.1142 16.5627C19.0007 16.2886 18.971 15.987 19.0288 15.696C19.0867 15.405 19.2296 15.1378 19.4394 14.928C19.6491 14.7182 19.9164 14.5754 20.2074 14.5175C20.4984 14.4596 20.8 14.4893 21.074 14.6028C21.3481 14.7164 21.5824 14.9086 21.7472 15.1553C21.912 15.402 22 15.692 22 15.9887C22 16.3865 21.842 16.768 21.5607 17.0493C21.2794 17.3306 20.8978 17.4887 20.5 17.4887Z" fill="#1db954"/>
</svg>