<svg xmlns="http://www.w3.org/2000/svg" width="32" height="32" viewBox="0 0 32 32" fill="none">
<path d="M27.96 1.3335H24.04C22.88 1.3335 22.0267 1.8135 21.64 2.66683C21.4267 3.0535 21.3334 3.50683 21.3334 4.04016V7.96016C21.3334 9.6535 22.3467 10.6668 24.04 10.6668H27.96C28.4934 10.6668 28.9467 10.5735 29.3334 10.3602C30.1867 9.9735 30.6667 9.12016 30.6667 7.96016V4.04016C30.6667 2.34683 29.6534 1.3335 27.96 1.3335ZM29.2134 6.5735C29.08 6.70683 28.88 6.80016 28.6667 6.8135H26.7867V7.4935L26.8 8.66683C26.7867 8.8935 26.7067 9.08016 26.5467 9.24016C26.4134 9.3735 26.2134 9.46683 26 9.46683C25.56 9.46683 25.2 9.10683 25.2 8.66683V6.80016L23.3334 6.8135C22.8934 6.8135 22.5334 6.44016 22.5334 6.00016C22.5334 5.56016 22.8934 5.20016 23.3334 5.20016L24.5067 5.2135H25.2V3.34683C25.2 2.90683 25.56 2.5335 26 2.5335C26.44 2.5335 26.8 2.90683 26.8 3.34683L26.7867 4.2935V5.20016H28.6667C29.1067 5.20016 29.4667 5.56016 29.4667 6.00016C29.4534 6.22683 29.36 6.4135 29.2134 6.5735Z" fill="#1db954"/>
<path d="M12 13.8398C13.7526 13.8398 15.1733 12.4191 15.1733 10.6665C15.1733 8.91391 13.7526 7.49316 12 7.49316C10.2474 7.49316 8.82666 8.91391 8.82666 10.6665C8.82666 12.4191 10.2474 13.8398 12 13.8398Z" fill="#1db954"/>
<path d="M27.96 10.6665H27.3333V16.8132L27.16 16.6665C26.12 15.7732 24.44 15.7732 23.4 16.6665L17.8533 21.4265C16.8133 22.3198 15.1333 22.3198 14.0933 21.4265L13.64 21.0532C12.6933 20.2265 11.1866 20.1465 10.12 20.8665L5.13329 24.2132C4.83996 23.4665 4.66663 22.5998 4.66663 21.5865V10.4132C4.66663 6.65317 6.65329 4.6665 10.4133 4.6665H21.3333V4.03984C21.3333 3.5065 21.4266 3.05317 21.64 2.6665H10.4133C5.55996 2.6665 2.66663 5.55984 2.66663 10.4132V21.5865C2.66663 23.0398 2.91996 24.3065 3.41329 25.3732C4.55996 27.9065 7.01329 29.3332 10.4133 29.3332H21.5866C26.44 29.3332 29.3333 26.4398 29.3333 21.5865V10.3598C28.9466 10.5732 28.4933 10.6665 27.96 10.6665Z" fill="#1db954"/>
</svg>