<svg width="32" height="32" viewBox="0 0 32 32" fill="none" xmlns="http://www.w3.org/2000/svg">
<path d="M29.1333 13.6666C28.0933 7.73322 22.9866 3.13322 16.9733 2.70655C8.83995 2.11989 2.11995 8.85322 2.70662 16.9732C3.13328 22.9866 7.73328 28.0799 13.6666 29.1199C15.2 29.3866 16.6933 29.3866 18.12 29.1466C18.5333 29.0799 18.7733 28.6266 18.6133 28.2532C18.2133 27.3466 18 26.3466 18 25.3199C18 23.0666 19 20.9866 20.76 19.5999C22.0533 18.5599 23.68 17.9866 25.3333 17.9866C26.3733 17.9866 27.36 18.1999 28.2533 18.5999C28.64 18.7732 29.08 18.5199 29.16 18.1066C29.4 16.6932 29.4 15.1999 29.1333 13.6666ZM19.3333 18.0932L17.7333 19.0132L16.1333 19.9332C14.1466 21.0799 12.52 20.1466 12.52 17.8399V15.9999V14.1466C12.52 11.8532 14.1466 10.9066 16.1333 12.0532L17.7333 12.9732L19.3333 13.8932C21.32 15.0666 21.32 16.9332 19.3333 18.0932Z" fill="white"/>
<path d="M25.3333 20C24.08 20 22.92 20.44 22 21.1733C20.7733 22.1467 20 23.6533 20 25.3333C20 26.3333 20.28 27.28 20.7733 28.08C21.6933 29.6267 23.3867 30.6667 25.3333 30.6667C26.68 30.6667 27.9067 30.1733 28.84 29.3333C29.2533 28.9867 29.6133 28.56 29.8933 28.08C30.3867 27.28 30.6667 26.3333 30.6667 25.3333C30.6667 22.3867 28.28 20 25.3333 20ZM27.3333 26.3067H26.3333V27.3467C26.3333 27.8933 25.88 28.3467 25.3333 28.3467C24.7867 28.3467 24.3333 27.8933 24.3333 27.3467V26.3067H23.3333C22.7867 26.3067 22.3333 25.8533 22.3333 25.3067C22.3333 24.76 22.7867 24.3067 23.3333 24.3067H24.3333V23.36C24.3333 22.8133 24.7867 22.36 25.3333 22.36C25.88 22.36 26.3333 22.8133 26.3333 23.36V24.3067H27.3333C27.88 24.3067 28.3333 24.76 28.3333 25.3067C28.3333 25.8533 27.88 26.3067 27.3333 26.3067Z" fill="white"/>
</svg>
