<svg width="32" height="32" viewBox="0 0 32 32" fill="none" xmlns="http://www.w3.org/2000/svg">
<path d="M22.3333 4.7465V2.6665C22.3333 2.11984 21.88 1.6665 21.3333 1.6665C20.7866 1.6665 20.3333 2.11984 20.3333 2.6665V4.6665H11.6666V2.6665C11.6666 2.11984 11.2133 1.6665 10.6666 1.6665C10.12 1.6665 9.66665 2.11984 9.66665 2.6665V4.7465C6.06665 5.07984 4.31998 7.2265 4.05331 10.4132C4.02665 10.7998 4.34665 11.1198 4.71998 11.1198H27.28C27.6666 11.1198 27.9866 10.7865 27.9466 10.4132C27.68 7.2265 25.9333 5.07984 22.3333 4.7465Z" fill="white"/>
<path fill-rule="evenodd" clip-rule="evenodd" d="M26.6667 13.1201H5.33333C4.6 13.1201 4 13.7201 4 14.4535V22.6668C4 26.6668 6 29.3335 10.6667 29.3335H21.3333C26 29.3335 28 26.6668 28 22.6668V14.4535C28 13.7201 27.4 13.1201 26.6667 13.1201ZM16 17.3782C16.606 16.5439 17.578 16.0001 18.664 16.0001C20.506 16.0001 22 17.5451 22 19.4546C22 20.19 21.886 20.8698 21.688 21.5001C20.74 24.59 17.818 26.4378 16.372 26.9445C16.168 27.0187 15.832 27.0187 15.628 26.9445C14.182 26.4378 11.26 24.59 10.312 21.5001C10.114 20.8698 10 20.19 10 19.4546C10 17.5451 11.494 16.0001 13.336 16.0001C14.422 16.0001 15.394 16.5439 16 17.3782Z" fill="white"/>
</svg>
