<svg width="24" height="25" viewBox="0 0 24 25" fill="none" xmlns="http://www.w3.org/2000/svg">
<path d="M17 2.93018H7C4 2.93018 2 4.93018 2 7.93018V13.9302C2 16.9302 4 18.9302 7 18.9302V21.0602C7 21.8602 7.89 22.3402 8.55 21.8902L13 18.9302H17C20 18.9302 22 16.9302 22 13.9302V7.93018C22 4.93018 20 2.93018 17 2.93018ZM12 15.1002C11.58 15.1002 11.25 14.7602 11.25 14.3502C11.25 13.9402 11.58 13.6002 12 13.6002C12.42 13.6002 12.75 13.9402 12.75 14.3502C12.75 14.7602 12.42 15.1002 12 15.1002ZM13.26 10.9502C12.87 11.2102 12.75 11.3802 12.75 11.6602V11.8702C12.75 12.2802 12.41 12.6202 12 12.6202C11.59 12.6202 11.25 12.2802 11.25 11.8702V11.6602C11.25 10.5002 12.1 9.93018 12.42 9.71018C12.79 9.46018 12.91 9.29018 12.91 9.03018C12.91 8.53018 12.5 8.12018 12 8.12018C11.5 8.12018 11.09 8.53018 11.09 9.03018C11.09 9.44018 10.75 9.78018 10.34 9.78018C9.93 9.78018 9.59 9.44018 9.59 9.03018C9.59 7.70018 10.67 6.62018 12 6.62018C13.33 6.62018 14.41 7.70018 14.41 9.03018C14.41 10.1702 13.57 10.7402 13.26 10.9502Z" fill="white"/>
</svg>
