<svg width="28" height="28" viewBox="0 0 28 28" fill="none" xmlns="http://www.w3.org/2000/svg">
<path d="M25.7734 8.68011L17.04 1.69344C15.3334 0.333439 12.6667 0.320106 10.9734 1.68011L2.24003 8.68011C0.986699 9.68011 0.226699 11.6801 0.493365 13.2534L2.17337 23.3068C2.56003 25.5601 4.65337 27.3334 6.93336 27.3334H21.0667C23.32 27.3334 25.4534 25.5201 25.84 23.2934L27.52 13.2401C27.76 11.6801 27 9.68011 25.7734 8.68011ZM15 22.0001C15 22.5468 14.5467 23.0001 14 23.0001C13.4534 23.0001 13 22.5468 13 22.0001V18.0001C13 17.4534 13.4534 17.0001 14 17.0001C14.5467 17.0001 15 17.4534 15 18.0001V22.0001Z" fill="#1DB954"/>
</svg>
