<svg xmlns="http://www.w3.org/2000/svg" width="32" height="32" viewBox="0 0 32 32" fill="none">
<path d="M25.4267 26.4267C25.1734 26.4267 24.9201 26.3333 24.7201 26.1333C24.3334 25.7467 24.3334 25.1067 24.7201 24.72C29.5334 19.9067 29.5334 12.08 24.7201 7.27999C24.3334 6.89333 24.3334 6.25333 24.7201 5.86666C25.1067 5.47999 25.7467 5.47999 26.1334 5.86666C31.7201 11.4533 31.7201 20.5467 26.1334 26.1333C25.9334 26.3333 25.6801 26.4267 25.4267 26.4267Z" fill="#1db954"/>
<path d="M6.5733 26.4267C6.31997 26.4267 6.06664 26.3333 5.86664 26.1333C0.279969 20.5467 0.279969 11.4533 5.86664 5.86666C6.2533 5.47999 6.8933 5.47999 7.27997 5.86666C7.66664 6.25333 7.66664 6.89333 7.27997 7.27999C2.46664 12.0933 2.46664 19.92 7.27997 24.72C7.66664 25.1067 7.66664 25.7467 7.27997 26.1333C7.07997 26.3333 6.82664 26.4267 6.5733 26.4267Z" fill="#1db954"/>
<path d="M16 30.2801C14.3333 30.2668 12.7466 30.0001 11.2666 29.4801C10.7466 29.2934 10.4666 28.7201 10.6533 28.2001C10.84 27.6801 11.4 27.4001 11.9333 27.5868C13.2133 28.0268 14.5733 28.2668 16.0133 28.2668C17.44 28.2668 18.8133 28.0268 20.08 27.5868C20.6 27.4134 21.1733 27.6801 21.36 28.2001C21.5466 28.7201 21.2666 29.2934 20.7466 29.4801C19.2533 30.0001 17.6666 30.2801 16 30.2801Z" fill="#1db954"/>
<path d="M20.4 4.45355C20.2933 4.45355 20.1733 4.44021 20.0666 4.40021C18.8 3.94688 17.4266 3.72021 16 3.72021C14.5733 3.72021 13.2133 3.96021 11.9333 4.40021C11.4 4.57355 10.84 4.30688 10.6533 3.78688C10.4666 3.26688 10.7466 2.69355 11.2666 2.50688C12.76 1.98688 14.3466 1.72021 16 1.72021C17.6533 1.72021 19.2533 1.98688 20.7333 2.50688C21.2533 2.69355 21.5333 3.26688 21.3466 3.78688C21.2 4.20021 20.8133 4.45355 20.4 4.45355Z" fill="#1db954"/>
<path d="M11.6533 15.9999V13.7732C11.6533 10.9999 13.6133 9.86653 16.0133 11.2532L17.9467 12.3732L19.88 13.4932C22.28 14.8799 22.28 17.1465 19.88 18.5332L17.9467 19.6532L16.0133 20.7732C13.6133 22.1599 11.6533 21.0265 11.6533 18.2532V15.9999Z" fill="#1db954"/>
</svg>